<mxfile host="app.diagrams.net" agent="Mozilla/5.0 (Windows NT 10.0; Win64; x64) AppleWebKit/537.36 (KHTML, like Gecko) Chrome/140.0.0.0 Safari/537.36" version="28.1.1">
  <diagram name="第 1 页" id="fc2qWwKT_eQD3knXw0V4">
    <mxGraphModel dx="2066" dy="1121" grid="1" gridSize="10" guides="1" tooltips="1" connect="1" arrows="1" fold="1" page="1" pageScale="1" pageWidth="827" pageHeight="1169" math="0" shadow="0">
      <root>
        <mxCell id="0" />
        <mxCell id="1" parent="0" />
        <mxCell id="_9u2cvtoZSCxlwE1ztmI-21" value="" style="rounded=0;whiteSpace=wrap;html=1;" vertex="1" parent="1">
          <mxGeometry x="180" y="2140" width="530" height="300" as="geometry" />
        </mxCell>
        <mxCell id="-fBVtS2RoCw09fAn3Mkb-46" value="" style="rounded=0;whiteSpace=wrap;html=1;fillColor=#dae8fc;strokeColor=#6c8ebf;" parent="1" vertex="1">
          <mxGeometry x="190" y="1674" width="210" height="346" as="geometry" />
        </mxCell>
        <mxCell id="-fBVtS2RoCw09fAn3Mkb-27" value="" style="rounded=0;whiteSpace=wrap;html=1;fillColor=#fff2cc;strokeColor=#d6b656;" parent="1" vertex="1">
          <mxGeometry x="454.5" y="1750" width="224.5" height="160" as="geometry" />
        </mxCell>
        <mxCell id="4X-aNIErhXsaIUGD21-c-82" value="" style="rounded=0;whiteSpace=wrap;html=1;" parent="1" vertex="1">
          <mxGeometry x="33" y="710" width="767" height="690" as="geometry" />
        </mxCell>
        <mxCell id="4X-aNIErhXsaIUGD21-c-5" value="" style="edgeStyle=orthogonalEdgeStyle;rounded=0;orthogonalLoop=1;jettySize=auto;html=1;" parent="1" source="4X-aNIErhXsaIUGD21-c-2" target="4X-aNIErhXsaIUGD21-c-4" edge="1">
          <mxGeometry relative="1" as="geometry" />
        </mxCell>
        <mxCell id="4X-aNIErhXsaIUGD21-c-6" value="IVR业务" style="edgeLabel;html=1;align=center;verticalAlign=middle;resizable=0;points=[];" parent="4X-aNIErhXsaIUGD21-c-5" vertex="1" connectable="0">
          <mxGeometry x="-0.2" y="4" relative="1" as="geometry">
            <mxPoint as="offset" />
          </mxGeometry>
        </mxCell>
        <mxCell id="4X-aNIErhXsaIUGD21-c-2" value="1183166值机电话" style="rounded=0;whiteSpace=wrap;html=1;verticalAlign=middle;" parent="1" vertex="1">
          <mxGeometry x="130" y="170" width="330" height="50" as="geometry" />
        </mxCell>
        <mxCell id="4X-aNIErhXsaIUGD21-c-7" value="" style="edgeStyle=orthogonalEdgeStyle;rounded=0;orthogonalLoop=1;jettySize=auto;html=1;" parent="1" source="4X-aNIErhXsaIUGD21-c-3" target="4X-aNIErhXsaIUGD21-c-2" edge="1">
          <mxGeometry relative="1" as="geometry" />
        </mxCell>
        <mxCell id="4X-aNIErhXsaIUGD21-c-3" value="客户" style="rounded=0;whiteSpace=wrap;html=1;fillColor=#dae8fc;strokeColor=#6c8ebf;" parent="1" vertex="1">
          <mxGeometry x="227.5" y="50" width="135" height="60" as="geometry" />
        </mxCell>
        <mxCell id="4X-aNIErhXsaIUGD21-c-9" value="" style="edgeStyle=orthogonalEdgeStyle;rounded=0;orthogonalLoop=1;jettySize=auto;html=1;" parent="1" source="4X-aNIErhXsaIUGD21-c-4" target="4X-aNIErhXsaIUGD21-c-8" edge="1">
          <mxGeometry relative="1" as="geometry" />
        </mxCell>
        <mxCell id="4X-aNIErhXsaIUGD21-c-4" value="虚拟号码" style="rounded=0;whiteSpace=wrap;html=1;" parent="1" vertex="1">
          <mxGeometry x="130" y="280" width="330" height="40" as="geometry" />
        </mxCell>
        <mxCell id="4X-aNIErhXsaIUGD21-c-13" value="" style="edgeStyle=orthogonalEdgeStyle;rounded=0;orthogonalLoop=1;jettySize=auto;html=1;" parent="1" source="4X-aNIErhXsaIUGD21-c-8" target="4X-aNIErhXsaIUGD21-c-12" edge="1">
          <mxGeometry relative="1" as="geometry" />
        </mxCell>
        <mxCell id="4X-aNIErhXsaIUGD21-c-16" value="输出电话语音文本识别结果" style="edgeLabel;html=1;align=center;verticalAlign=middle;resizable=0;points=[];" parent="4X-aNIErhXsaIUGD21-c-13" vertex="1" connectable="0">
          <mxGeometry x="-0.36" y="-3" relative="1" as="geometry">
            <mxPoint as="offset" />
          </mxGeometry>
        </mxCell>
        <mxCell id="4X-aNIErhXsaIUGD21-c-8" value="AI语音服务平台" style="rounded=0;whiteSpace=wrap;html=1;" parent="1" vertex="1">
          <mxGeometry x="137.5" y="360" width="315" height="40" as="geometry" />
        </mxCell>
        <mxCell id="4X-aNIErhXsaIUGD21-c-15" value="" style="edgeStyle=orthogonalEdgeStyle;rounded=0;orthogonalLoop=1;jettySize=auto;html=1;" parent="1" source="4X-aNIErhXsaIUGD21-c-12" target="4X-aNIErhXsaIUGD21-c-14" edge="1">
          <mxGeometry relative="1" as="geometry" />
        </mxCell>
        <mxCell id="4X-aNIErhXsaIUGD21-c-17" value="" style="edgeStyle=orthogonalEdgeStyle;rounded=0;orthogonalLoop=1;jettySize=auto;html=1;" parent="1" source="4X-aNIErhXsaIUGD21-c-12" target="4X-aNIErhXsaIUGD21-c-14" edge="1">
          <mxGeometry relative="1" as="geometry" />
        </mxCell>
        <mxCell id="4X-aNIErhXsaIUGD21-c-18" value="数据处理" style="edgeLabel;html=1;align=center;verticalAlign=middle;resizable=0;points=[];" parent="4X-aNIErhXsaIUGD21-c-17" vertex="1" connectable="0">
          <mxGeometry x="-0.08" y="1" relative="1" as="geometry">
            <mxPoint as="offset" />
          </mxGeometry>
        </mxCell>
        <mxCell id="4X-aNIErhXsaIUGD21-c-12" value="AI工单自动化调度系统" style="rounded=0;whiteSpace=wrap;html=1;" parent="1" vertex="1">
          <mxGeometry x="137.5" y="450" width="315" height="40" as="geometry" />
        </mxCell>
        <mxCell id="4X-aNIErhXsaIUGD21-c-33" style="edgeStyle=orthogonalEdgeStyle;rounded=0;orthogonalLoop=1;jettySize=auto;html=1;exitX=0.5;exitY=1;exitDx=0;exitDy=0;" parent="1" edge="1">
          <mxGeometry relative="1" as="geometry">
            <mxPoint x="650" y="380" as="targetPoint" />
            <mxPoint x="225" y="580" as="sourcePoint" />
            <Array as="points">
              <mxPoint x="225" y="620" />
              <mxPoint x="651" y="620" />
            </Array>
          </mxGeometry>
        </mxCell>
        <mxCell id="4X-aNIErhXsaIUGD21-c-34" value="派发工单" style="edgeLabel;html=1;align=center;verticalAlign=middle;resizable=0;points=[];" parent="4X-aNIErhXsaIUGD21-c-33" vertex="1" connectable="0">
          <mxGeometry x="-0.2805" y="-1" relative="1" as="geometry">
            <mxPoint as="offset" />
          </mxGeometry>
        </mxCell>
        <mxCell id="4X-aNIErhXsaIUGD21-c-14" value="钉钉氚云平台" style="whiteSpace=wrap;html=1;rounded=0;fillColor=#ffe6cc;strokeColor=#d79b00;" parent="1" vertex="1">
          <mxGeometry x="142.5" y="540" width="305" height="40" as="geometry" />
        </mxCell>
        <mxCell id="4X-aNIErhXsaIUGD21-c-21" style="edgeStyle=orthogonalEdgeStyle;rounded=0;orthogonalLoop=1;jettySize=auto;html=1;entryX=1;entryY=0.5;entryDx=0;entryDy=0;" parent="1" source="4X-aNIErhXsaIUGD21-c-20" target="4X-aNIErhXsaIUGD21-c-3" edge="1">
          <mxGeometry relative="1" as="geometry">
            <Array as="points">
              <mxPoint x="650" y="80" />
            </Array>
          </mxGeometry>
        </mxCell>
        <mxCell id="4X-aNIErhXsaIUGD21-c-22" value="电话回访" style="edgeLabel;html=1;align=center;verticalAlign=middle;resizable=0;points=[];" parent="4X-aNIErhXsaIUGD21-c-21" vertex="1" connectable="0">
          <mxGeometry x="-0.4211" y="1" relative="1" as="geometry">
            <mxPoint as="offset" />
          </mxGeometry>
        </mxCell>
        <mxCell id="4X-aNIErhXsaIUGD21-c-27" style="edgeStyle=orthogonalEdgeStyle;rounded=0;orthogonalLoop=1;jettySize=auto;html=1;exitX=0;exitY=0.5;exitDx=0;exitDy=0;entryX=1;entryY=0.5;entryDx=0;entryDy=0;" parent="1" source="4X-aNIErhXsaIUGD21-c-20" target="4X-aNIErhXsaIUGD21-c-14" edge="1">
          <mxGeometry relative="1" as="geometry">
            <mxPoint x="560" y="560" as="targetPoint" />
            <Array as="points">
              <mxPoint x="510" y="345" />
              <mxPoint x="510" y="560" />
            </Array>
          </mxGeometry>
        </mxCell>
        <mxCell id="4X-aNIErhXsaIUGD21-c-28" value="回单" style="edgeLabel;html=1;align=center;verticalAlign=middle;resizable=0;points=[];" parent="4X-aNIErhXsaIUGD21-c-27" vertex="1" connectable="0">
          <mxGeometry x="-0.1099" y="3" relative="1" as="geometry">
            <mxPoint as="offset" />
          </mxGeometry>
        </mxCell>
        <mxCell id="4X-aNIErhXsaIUGD21-c-20" value="维护人员" style="rounded=0;whiteSpace=wrap;html=1;fillColor=#f8cecc;strokeColor=#b85450;" parent="1" vertex="1">
          <mxGeometry x="560" y="320" width="210" height="50" as="geometry" />
        </mxCell>
        <mxCell id="4X-aNIErhXsaIUGD21-c-36" value="" style="rounded=0;whiteSpace=wrap;html=1;flipH=1;fillColor=#d5e8d4;strokeColor=#82b366;fontSize=14;" parent="1" vertex="1">
          <mxGeometry x="140" y="760" width="620" height="65" as="geometry" />
        </mxCell>
        <mxCell id="4X-aNIErhXsaIUGD21-c-37" value="PC管理端" style="rounded=0;whiteSpace=wrap;html=1;fontSize=14;" parent="1" vertex="1">
          <mxGeometry x="190" y="767.5" width="100" height="50" as="geometry" />
        </mxCell>
        <mxCell id="4X-aNIErhXsaIUGD21-c-38" value="APAAS数据大屏" style="rounded=0;whiteSpace=wrap;html=1;fontSize=14;" parent="1" vertex="1">
          <mxGeometry x="380" y="767.5" width="120" height="50" as="geometry" />
        </mxCell>
        <mxCell id="4X-aNIErhXsaIUGD21-c-39" value="小程序" style="rounded=0;whiteSpace=wrap;html=1;fontSize=14;" parent="1" vertex="1">
          <mxGeometry x="590" y="767.5" width="100" height="50" as="geometry" />
        </mxCell>
        <mxCell id="4X-aNIErhXsaIUGD21-c-40" value="Nginx(接入网关、静态资源)" style="rounded=0;whiteSpace=wrap;html=1;fillColor=#dae8fc;strokeColor=#6c8ebf;fontSize=14;" parent="1" vertex="1">
          <mxGeometry x="140" y="840" width="620" height="40" as="geometry" />
        </mxCell>
        <mxCell id="4X-aNIErhXsaIUGD21-c-42" value="" style="rounded=0;whiteSpace=wrap;html=1;fillColor=#ffe6cc;strokeColor=#d79b00;fontSize=14;" parent="1" vertex="1">
          <mxGeometry x="140" y="900" width="430" height="170" as="geometry" />
        </mxCell>
        <mxCell id="4X-aNIErhXsaIUGD21-c-43" value="AI语音模块" style="rounded=0;whiteSpace=wrap;html=1;fontSize=14;" parent="1" vertex="1">
          <mxGeometry x="160" y="910" width="120" height="50" as="geometry" />
        </mxCell>
        <mxCell id="4X-aNIErhXsaIUGD21-c-44" value="工单模块" style="rounded=0;whiteSpace=wrap;html=1;fontSize=14;" parent="1" vertex="1">
          <mxGeometry x="295" y="910" width="120" height="50" as="geometry" />
        </mxCell>
        <mxCell id="4X-aNIErhXsaIUGD21-c-45" value="系统管理模块" style="rounded=0;whiteSpace=wrap;html=1;fontSize=14;" parent="1" vertex="1">
          <mxGeometry x="293" y="971" width="120" height="46" as="geometry" />
        </mxCell>
        <mxCell id="4X-aNIErhXsaIUGD21-c-48" value="消息提醒模块" style="rounded=0;whiteSpace=wrap;html=1;fontSize=14;" parent="1" vertex="1">
          <mxGeometry x="160" y="970" width="120" height="47" as="geometry" />
        </mxCell>
        <mxCell id="4X-aNIErhXsaIUGD21-c-51" value="" style="rounded=0;whiteSpace=wrap;html=1;fillColor=#f8cecc;strokeColor=#b85450;fontSize=14;" parent="1" vertex="1">
          <mxGeometry x="140" y="1100" width="430" height="110" as="geometry" />
        </mxCell>
        <mxCell id="4X-aNIErhXsaIUGD21-c-52" value="短信发送" style="rounded=0;whiteSpace=wrap;html=1;fontSize=14;" parent="1" vertex="1">
          <mxGeometry x="160" y="1109" width="110" height="41" as="geometry" />
        </mxCell>
        <mxCell id="4X-aNIErhXsaIUGD21-c-53" value="语音发送" style="rounded=0;whiteSpace=wrap;html=1;fontSize=14;" parent="1" vertex="1">
          <mxGeometry x="300" y="1109" width="110" height="41" as="geometry" />
        </mxCell>
        <mxCell id="4X-aNIErhXsaIUGD21-c-54" value="定时任务" style="rounded=0;whiteSpace=wrap;html=1;fontSize=14;" parent="1" vertex="1">
          <mxGeometry x="440" y="1109" width="110" height="41" as="geometry" />
        </mxCell>
        <mxCell id="4X-aNIErhXsaIUGD21-c-55" value="钉钉接入" style="rounded=0;whiteSpace=wrap;html=1;fontSize=14;" parent="1" vertex="1">
          <mxGeometry x="160" y="1159" width="110" height="41" as="geometry" />
        </mxCell>
        <mxCell id="4X-aNIErhXsaIUGD21-c-56" value="文件存储" style="rounded=0;whiteSpace=wrap;html=1;fontSize=14;" parent="1" vertex="1">
          <mxGeometry x="300" y="1159" width="110" height="41" as="geometry" />
        </mxCell>
        <mxCell id="4X-aNIErhXsaIUGD21-c-58" value="日志模块" style="rounded=0;whiteSpace=wrap;html=1;fontSize=14;" parent="1" vertex="1">
          <mxGeometry x="440" y="1159" width="110" height="41" as="geometry" />
        </mxCell>
        <mxCell id="4X-aNIErhXsaIUGD21-c-59" value="权限控制" style="rounded=0;whiteSpace=wrap;html=1;fillColor=#e1d5e7;strokeColor=#9673a6;fontSize=14;textDirection=vertical-lr;" parent="1" vertex="1">
          <mxGeometry x="600" y="900" width="60" height="310" as="geometry" />
        </mxCell>
        <mxCell id="4X-aNIErhXsaIUGD21-c-60" value="日志记录" style="rounded=0;whiteSpace=wrap;html=1;fillColor=#fff2cc;strokeColor=#d6b656;fontSize=14;textDirection=vertical-lr;" parent="1" vertex="1">
          <mxGeometry x="690" y="900" width="60" height="310" as="geometry" />
        </mxCell>
        <mxCell id="4X-aNIErhXsaIUGD21-c-68" value="" style="group;fontSize=14;fillColor=#dae8fc;strokeColor=#6c8ebf;" parent="1" vertex="1" connectable="0">
          <mxGeometry x="140" y="1230" width="620" height="60" as="geometry" />
        </mxCell>
        <mxCell id="4X-aNIErhXsaIUGD21-c-62" value="" style="rounded=0;whiteSpace=wrap;html=1;fillColor=#dae8fc;strokeColor=#6c8ebf;fontSize=14;" parent="4X-aNIErhXsaIUGD21-c-68" vertex="1">
          <mxGeometry width="620" height="60" as="geometry" />
        </mxCell>
        <mxCell id="4X-aNIErhXsaIUGD21-c-63" value="MySQL" style="rounded=0;whiteSpace=wrap;html=1;fontSize=14;" parent="4X-aNIErhXsaIUGD21-c-68" vertex="1">
          <mxGeometry x="20" y="15" width="100" height="30" as="geometry" />
        </mxCell>
        <mxCell id="4X-aNIErhXsaIUGD21-c-64" value="Redis" style="rounded=0;whiteSpace=wrap;html=1;fontSize=14;" parent="4X-aNIErhXsaIUGD21-c-68" vertex="1">
          <mxGeometry x="140" y="15" width="100" height="30" as="geometry" />
        </mxCell>
        <mxCell id="4X-aNIErhXsaIUGD21-c-65" value="Minio" style="rounded=0;whiteSpace=wrap;html=1;fontSize=14;" parent="4X-aNIErhXsaIUGD21-c-68" vertex="1">
          <mxGeometry x="260" y="15" width="100" height="30" as="geometry" />
        </mxCell>
        <mxCell id="4X-aNIErhXsaIUGD21-c-66" value="天山云短信" style="rounded=0;whiteSpace=wrap;html=1;fontSize=14;" parent="4X-aNIErhXsaIUGD21-c-68" vertex="1">
          <mxGeometry x="380" y="15" width="100" height="30" as="geometry" />
        </mxCell>
        <mxCell id="4X-aNIErhXsaIUGD21-c-67" value="MongoDB" style="rounded=0;whiteSpace=wrap;html=1;fontSize=14;" parent="4X-aNIErhXsaIUGD21-c-68" vertex="1">
          <mxGeometry x="500" y="15" width="100" height="30" as="geometry" />
        </mxCell>
        <mxCell id="4X-aNIErhXsaIUGD21-c-69" value="访问层" style="text;html=1;align=center;verticalAlign=middle;whiteSpace=wrap;rounded=0;fontSize=18;" parent="1" vertex="1">
          <mxGeometry x="50" y="777.5" width="60" height="30" as="geometry" />
        </mxCell>
        <mxCell id="4X-aNIErhXsaIUGD21-c-70" value="接入层" style="text;html=1;align=center;verticalAlign=middle;whiteSpace=wrap;rounded=0;fontSize=18;" parent="1" vertex="1">
          <mxGeometry x="50" y="845" width="60" height="30" as="geometry" />
        </mxCell>
        <mxCell id="4X-aNIErhXsaIUGD21-c-71" value="业务层" style="text;html=1;align=center;verticalAlign=middle;whiteSpace=wrap;rounded=0;fontSize=18;" parent="1" vertex="1">
          <mxGeometry x="50" y="960" width="60" height="30" as="geometry" />
        </mxCell>
        <mxCell id="4X-aNIErhXsaIUGD21-c-72" value="基础设施层" style="text;html=1;align=center;verticalAlign=middle;whiteSpace=wrap;rounded=0;fontSize=18;" parent="1" vertex="1">
          <mxGeometry x="50" y="1139" width="60" height="30" as="geometry" />
        </mxCell>
        <mxCell id="4X-aNIErhXsaIUGD21-c-73" value="存储层" style="text;html=1;align=center;verticalAlign=middle;whiteSpace=wrap;rounded=0;fontSize=18;" parent="1" vertex="1">
          <mxGeometry x="50" y="1245" width="60" height="30" as="geometry" />
        </mxCell>
        <mxCell id="4X-aNIErhXsaIUGD21-c-75" value="天翼云服务器" style="rounded=0;whiteSpace=wrap;html=1;fillColor=#f8cecc;strokeColor=#b85450;align=left;fontSize=16;" parent="1" vertex="1">
          <mxGeometry x="140" y="1320" width="630" height="60" as="geometry" />
        </mxCell>
        <mxCell id="4X-aNIErhXsaIUGD21-c-76" value="服务层" style="text;html=1;align=center;verticalAlign=middle;whiteSpace=wrap;rounded=0;fontSize=18;" parent="1" vertex="1">
          <mxGeometry x="50" y="1330" width="60" height="30" as="geometry" />
        </mxCell>
        <mxCell id="4X-aNIErhXsaIUGD21-c-77" value="Docker" style="rounded=0;whiteSpace=wrap;html=1;" parent="1" vertex="1">
          <mxGeometry x="280" y="1330" width="110" height="40" as="geometry" />
        </mxCell>
        <mxCell id="4X-aNIErhXsaIUGD21-c-78" value="Docker-Compose" style="rounded=0;whiteSpace=wrap;html=1;" parent="1" vertex="1">
          <mxGeometry x="430" y="1330" width="110" height="40" as="geometry" />
        </mxCell>
        <mxCell id="4X-aNIErhXsaIUGD21-c-79" value="DCN网络" style="rounded=0;whiteSpace=wrap;html=1;" parent="1" vertex="1">
          <mxGeometry x="594" y="1330" width="110" height="40" as="geometry" />
        </mxCell>
        <mxCell id="-fBVtS2RoCw09fAn3Mkb-1" value="数据预警模块" style="rounded=0;whiteSpace=wrap;html=1;fontSize=14;" parent="1" vertex="1">
          <mxGeometry x="430" y="910" width="120" height="50" as="geometry" />
        </mxCell>
        <mxCell id="-fBVtS2RoCw09fAn3Mkb-2" value="工单数据处理" style="rounded=0;whiteSpace=wrap;html=1;fontSize=14;" parent="1" vertex="1">
          <mxGeometry x="430" y="972" width="120" height="45" as="geometry" />
        </mxCell>
        <mxCell id="-fBVtS2RoCw09fAn3Mkb-7" style="edgeStyle=orthogonalEdgeStyle;rounded=0;orthogonalLoop=1;jettySize=auto;html=1;exitX=0;exitY=0.5;exitDx=0;exitDy=0;entryX=0;entryY=0.5;entryDx=0;entryDy=0;" parent="1" source="-fBVtS2RoCw09fAn3Mkb-3" target="-fBVtS2RoCw09fAn3Mkb-4" edge="1">
          <mxGeometry relative="1" as="geometry">
            <Array as="points">
              <mxPoint x="169" y="1710" />
              <mxPoint x="169" y="1590" />
            </Array>
          </mxGeometry>
        </mxCell>
        <mxCell id="-fBVtS2RoCw09fAn3Mkb-8" value="获取失败重试" style="edgeLabel;html=1;align=center;verticalAlign=middle;resizable=0;points=[];" parent="-fBVtS2RoCw09fAn3Mkb-7" vertex="1" connectable="0">
          <mxGeometry x="0.0298" y="5" relative="1" as="geometry">
            <mxPoint as="offset" />
          </mxGeometry>
        </mxCell>
        <mxCell id="-fBVtS2RoCw09fAn3Mkb-3" value="定时任务" style="rounded=0;whiteSpace=wrap;html=1;" parent="1" vertex="1">
          <mxGeometry x="229" y="1690" width="120" height="40" as="geometry" />
        </mxCell>
        <mxCell id="-fBVtS2RoCw09fAn3Mkb-5" style="edgeStyle=orthogonalEdgeStyle;rounded=0;orthogonalLoop=1;jettySize=auto;html=1;exitX=0.5;exitY=1;exitDx=0;exitDy=0;entryX=0.5;entryY=0;entryDx=0;entryDy=0;" parent="1" source="-fBVtS2RoCw09fAn3Mkb-4" target="-fBVtS2RoCw09fAn3Mkb-3" edge="1">
          <mxGeometry relative="1" as="geometry" />
        </mxCell>
        <mxCell id="-fBVtS2RoCw09fAn3Mkb-6" value="获取工单维护数据" style="edgeLabel;html=1;align=center;verticalAlign=middle;resizable=0;points=[];" parent="-fBVtS2RoCw09fAn3Mkb-5" vertex="1" connectable="0">
          <mxGeometry x="-0.025" y="1" relative="1" as="geometry">
            <mxPoint as="offset" />
          </mxGeometry>
        </mxCell>
        <mxCell id="-fBVtS2RoCw09fAn3Mkb-4" value="光网平台（DCOOS）" style="rounded=1;whiteSpace=wrap;html=1;" parent="1" vertex="1">
          <mxGeometry x="224" y="1570" width="130" height="40" as="geometry" />
        </mxCell>
        <mxCell id="-fBVtS2RoCw09fAn3Mkb-12" style="edgeStyle=orthogonalEdgeStyle;rounded=0;orthogonalLoop=1;jettySize=auto;html=1;exitX=0.5;exitY=1;exitDx=0;exitDy=0;entryX=0.5;entryY=0;entryDx=0;entryDy=0;" parent="1" source="-fBVtS2RoCw09fAn3Mkb-9" target="-fBVtS2RoCw09fAn3Mkb-11" edge="1">
          <mxGeometry relative="1" as="geometry" />
        </mxCell>
        <mxCell id="-fBVtS2RoCw09fAn3Mkb-9" value="数据处理" style="rounded=1;whiteSpace=wrap;html=1;" parent="1" vertex="1">
          <mxGeometry x="235" y="1770" width="105" height="40" as="geometry" />
        </mxCell>
        <mxCell id="-fBVtS2RoCw09fAn3Mkb-10" style="edgeStyle=orthogonalEdgeStyle;rounded=0;orthogonalLoop=1;jettySize=auto;html=1;exitX=0.5;exitY=1;exitDx=0;exitDy=0;entryX=0.448;entryY=-0.025;entryDx=0;entryDy=0;entryPerimeter=0;" parent="1" source="-fBVtS2RoCw09fAn3Mkb-3" target="-fBVtS2RoCw09fAn3Mkb-9" edge="1">
          <mxGeometry relative="1" as="geometry" />
        </mxCell>
        <mxCell id="-fBVtS2RoCw09fAn3Mkb-14" style="edgeStyle=orthogonalEdgeStyle;rounded=0;orthogonalLoop=1;jettySize=auto;html=1;exitX=0.5;exitY=1;exitDx=0;exitDy=0;" parent="1" source="-fBVtS2RoCw09fAn3Mkb-11" edge="1">
          <mxGeometry relative="1" as="geometry">
            <mxPoint x="292" y="1920" as="targetPoint" />
          </mxGeometry>
        </mxCell>
        <mxCell id="-fBVtS2RoCw09fAn3Mkb-11" value="数据去重" style="rounded=1;whiteSpace=wrap;html=1;" parent="1" vertex="1">
          <mxGeometry x="232.5" y="1850" width="110" height="40" as="geometry" />
        </mxCell>
        <mxCell id="-fBVtS2RoCw09fAn3Mkb-49" style="edgeStyle=orthogonalEdgeStyle;rounded=0;orthogonalLoop=1;jettySize=auto;html=1;exitX=1;exitY=0.5;exitDx=0;exitDy=0;entryX=0.5;entryY=0;entryDx=0;entryDy=0;" parent="1" source="-fBVtS2RoCw09fAn3Mkb-15" target="-fBVtS2RoCw09fAn3Mkb-16" edge="1">
          <mxGeometry relative="1" as="geometry">
            <Array as="points">
              <mxPoint x="380" y="1940" />
              <mxPoint x="380" y="1630" />
              <mxPoint x="542" y="1630" />
            </Array>
          </mxGeometry>
        </mxCell>
        <mxCell id="-fBVtS2RoCw09fAn3Mkb-15" value="数据入库" style="rounded=0;whiteSpace=wrap;html=1;" parent="1" vertex="1">
          <mxGeometry x="233.5" y="1920" width="106" height="40" as="geometry" />
        </mxCell>
        <mxCell id="-fBVtS2RoCw09fAn3Mkb-30" style="edgeStyle=orthogonalEdgeStyle;rounded=0;orthogonalLoop=1;jettySize=auto;html=1;exitX=0;exitY=0.5;exitDx=0;exitDy=0;" parent="1" source="-fBVtS2RoCw09fAn3Mkb-16" target="-fBVtS2RoCw09fAn3Mkb-28" edge="1">
          <mxGeometry relative="1" as="geometry">
            <Array as="points">
              <mxPoint x="439" y="1680" />
              <mxPoint x="439" y="1870" />
            </Array>
          </mxGeometry>
        </mxCell>
        <mxCell id="-fBVtS2RoCw09fAn3Mkb-31" value="是" style="edgeLabel;html=1;align=center;verticalAlign=middle;resizable=0;points=[];" parent="-fBVtS2RoCw09fAn3Mkb-30" vertex="1" connectable="0">
          <mxGeometry x="0.0559" y="-3" relative="1" as="geometry">
            <mxPoint y="1" as="offset" />
          </mxGeometry>
        </mxCell>
        <mxCell id="-fBVtS2RoCw09fAn3Mkb-38" value="否" style="edgeLabel;html=1;align=center;verticalAlign=middle;resizable=0;points=[];" parent="-fBVtS2RoCw09fAn3Mkb-30" vertex="1" connectable="0">
          <mxGeometry x="0.0615" y="-3" relative="1" as="geometry">
            <mxPoint as="offset" />
          </mxGeometry>
        </mxCell>
        <mxCell id="-fBVtS2RoCw09fAn3Mkb-41" style="edgeStyle=orthogonalEdgeStyle;rounded=0;orthogonalLoop=1;jettySize=auto;html=1;exitX=0.5;exitY=1;exitDx=0;exitDy=0;" parent="1" source="-fBVtS2RoCw09fAn3Mkb-16" target="-fBVtS2RoCw09fAn3Mkb-35" edge="1">
          <mxGeometry relative="1" as="geometry" />
        </mxCell>
        <mxCell id="-fBVtS2RoCw09fAn3Mkb-45" value="是" style="edgeLabel;html=1;align=center;verticalAlign=middle;resizable=0;points=[];" parent="-fBVtS2RoCw09fAn3Mkb-41" vertex="1" connectable="0">
          <mxGeometry x="-0.2397" y="-1" relative="1" as="geometry">
            <mxPoint as="offset" />
          </mxGeometry>
        </mxCell>
        <mxCell id="-fBVtS2RoCw09fAn3Mkb-16" value="是否结束" style="rhombus;whiteSpace=wrap;html=1;" parent="1" vertex="1">
          <mxGeometry x="478.5" y="1650" width="127" height="60" as="geometry" />
        </mxCell>
        <mxCell id="-fBVtS2RoCw09fAn3Mkb-20" value="用车申请数据" style="rounded=0;whiteSpace=wrap;html=1;" parent="1" vertex="1">
          <mxGeometry x="492" y="1940" width="100" height="40" as="geometry" />
        </mxCell>
        <mxCell id="-fBVtS2RoCw09fAn3Mkb-44" style="edgeStyle=orthogonalEdgeStyle;rounded=0;orthogonalLoop=1;jettySize=auto;html=1;exitX=0.5;exitY=1;exitDx=0;exitDy=0;" parent="1" source="-fBVtS2RoCw09fAn3Mkb-28" target="-fBVtS2RoCw09fAn3Mkb-20" edge="1">
          <mxGeometry relative="1" as="geometry" />
        </mxCell>
        <mxCell id="-fBVtS2RoCw09fAn3Mkb-28" value="写入可关联工单" style="rounded=1;whiteSpace=wrap;html=1;" parent="1" vertex="1">
          <mxGeometry x="479" y="1850" width="125" height="40" as="geometry" />
        </mxCell>
        <mxCell id="-fBVtS2RoCw09fAn3Mkb-39" style="edgeStyle=orthogonalEdgeStyle;rounded=0;orthogonalLoop=1;jettySize=auto;html=1;exitX=0.5;exitY=1;exitDx=0;exitDy=0;entryX=0.5;entryY=0;entryDx=0;entryDy=0;" parent="1" source="-fBVtS2RoCw09fAn3Mkb-35" target="-fBVtS2RoCw09fAn3Mkb-28" edge="1">
          <mxGeometry relative="1" as="geometry" />
        </mxCell>
        <mxCell id="-fBVtS2RoCw09fAn3Mkb-40" value="修改" style="edgeLabel;html=1;align=center;verticalAlign=middle;resizable=0;points=[];" parent="-fBVtS2RoCw09fAn3Mkb-39" vertex="1" connectable="0">
          <mxGeometry x="-0.15" y="5" relative="1" as="geometry">
            <mxPoint as="offset" />
          </mxGeometry>
        </mxCell>
        <mxCell id="-fBVtS2RoCw09fAn3Mkb-35" value="写入已关闭工单" style="rounded=1;whiteSpace=wrap;html=1;" parent="1" vertex="1">
          <mxGeometry x="479" y="1770" width="125" height="40" as="geometry" />
        </mxCell>
        <mxCell id="-fBVtS2RoCw09fAn3Mkb-42" value="车辆系统" style="text;html=1;align=center;verticalAlign=middle;whiteSpace=wrap;rounded=0;" parent="1" vertex="1">
          <mxGeometry x="619" y="1820" width="60" height="30" as="geometry" />
        </mxCell>
        <mxCell id="-fBVtS2RoCw09fAn3Mkb-48" value="维护平台" style="text;html=1;align=center;verticalAlign=middle;whiteSpace=wrap;rounded=0;" parent="1" vertex="1">
          <mxGeometry x="250" y="1980" width="60" height="30" as="geometry" />
        </mxCell>
        <mxCell id="_9u2cvtoZSCxlwE1ztmI-1" value="" style="rounded=0;whiteSpace=wrap;html=1;fillColor=#dae8fc;strokeColor=#6c8ebf;" vertex="1" parent="1">
          <mxGeometry x="190" y="2150" width="508" height="70" as="geometry" />
        </mxCell>
        <mxCell id="_9u2cvtoZSCxlwE1ztmI-5" value="" style="rounded=0;whiteSpace=wrap;html=1;fillColor=#d5e8d4;strokeColor=#82b366;" vertex="1" parent="1">
          <mxGeometry x="190" y="2309" width="510" height="60" as="geometry" />
        </mxCell>
        <mxCell id="_9u2cvtoZSCxlwE1ztmI-6" value="" style="rounded=0;whiteSpace=wrap;html=1;fillColor=#fff2cc;strokeColor=#d6b656;" vertex="1" parent="1">
          <mxGeometry x="190" y="2230" width="510" height="60" as="geometry" />
        </mxCell>
        <mxCell id="_9u2cvtoZSCxlwE1ztmI-7" value="维护可视化大屏" style="rounded=1;whiteSpace=wrap;html=1;" vertex="1" parent="1">
          <mxGeometry x="203" y="2157.5" width="110" height="55" as="geometry" />
        </mxCell>
        <mxCell id="_9u2cvtoZSCxlwE1ztmI-9" value="维护管理分析" style="rounded=1;whiteSpace=wrap;html=1;" vertex="1" parent="1">
          <mxGeometry x="328" y="2157.5" width="110" height="55" as="geometry" />
        </mxCell>
        <mxCell id="_9u2cvtoZSCxlwE1ztmI-10" value="第三方平台集成" style="rounded=1;whiteSpace=wrap;html=1;" vertex="1" parent="1">
          <mxGeometry x="453" y="2157.5" width="110" height="55" as="geometry" />
        </mxCell>
        <mxCell id="_9u2cvtoZSCxlwE1ztmI-11" value="开放API接口" style="rounded=1;whiteSpace=wrap;html=1;" vertex="1" parent="1">
          <mxGeometry x="580" y="2157.5" width="110" height="55" as="geometry" />
        </mxCell>
        <mxCell id="_9u2cvtoZSCxlwE1ztmI-12" value="氚云数据集成" style="rounded=0;whiteSpace=wrap;html=1;fontSize=14;" vertex="1" parent="1">
          <mxGeometry x="160" y="1025" width="120" height="40" as="geometry" />
        </mxCell>
        <mxCell id="_9u2cvtoZSCxlwE1ztmI-13" value="DCOOS数据接入" style="rounded=0;whiteSpace=wrap;html=1;fontSize=14;" vertex="1" parent="1">
          <mxGeometry x="293" y="1025" width="120" height="38" as="geometry" />
        </mxCell>
        <mxCell id="_9u2cvtoZSCxlwE1ztmI-14" value="维护成本" style="rounded=0;whiteSpace=wrap;html=1;fontSize=14;" vertex="1" parent="1">
          <mxGeometry x="430" y="1025" width="120" height="37" as="geometry" />
        </mxCell>
        <mxCell id="_9u2cvtoZSCxlwE1ztmI-15" value="AI服务接入" style="rounded=1;whiteSpace=wrap;html=1;" vertex="1" parent="1">
          <mxGeometry x="202" y="2314" width="110" height="50" as="geometry" />
        </mxCell>
        <mxCell id="_9u2cvtoZSCxlwE1ztmI-16" value="工单数据" style="rounded=1;whiteSpace=wrap;html=1;" vertex="1" parent="1">
          <mxGeometry x="330" y="2314" width="110" height="50" as="geometry" />
        </mxCell>
        <mxCell id="_9u2cvtoZSCxlwE1ztmI-17" value="钉钉数据" style="rounded=1;whiteSpace=wrap;html=1;" vertex="1" parent="1">
          <mxGeometry x="454.5" y="2314" width="110" height="50" as="geometry" />
        </mxCell>
        <mxCell id="_9u2cvtoZSCxlwE1ztmI-18" value="障碍数据" style="rounded=1;whiteSpace=wrap;html=1;" vertex="1" parent="1">
          <mxGeometry x="585" y="2314" width="110" height="50" as="geometry" />
        </mxCell>
        <mxCell id="_9u2cvtoZSCxlwE1ztmI-19" value="数据接入" style="rounded=1;whiteSpace=wrap;html=1;" vertex="1" parent="1">
          <mxGeometry x="239" y="2235" width="141" height="50" as="geometry" />
        </mxCell>
        <mxCell id="_9u2cvtoZSCxlwE1ztmI-20" value="数据处理" style="rounded=1;whiteSpace=wrap;html=1;" vertex="1" parent="1">
          <mxGeometry x="460" y="2235" width="141" height="50" as="geometry" />
        </mxCell>
        <mxCell id="_9u2cvtoZSCxlwE1ztmI-22" value="数据底座" style="rounded=0;whiteSpace=wrap;html=1;fillColor=#ffe6cc;strokeColor=#d79b00;" vertex="1" parent="1">
          <mxGeometry x="190" y="2380" width="510" height="50" as="geometry" />
        </mxCell>
      </root>
    </mxGraphModel>
  </diagram>
</mxfile>
